<svg xmlns="http://www.w3.org/2000/svg" viewBox="0 0 300 124" role="img" aria-label="Montura Faro, dibujada para el catálogo de la óptica">
<title>Montura Faro</title>
<g fill="none" stroke="#8795A3" stroke-width="3" stroke-linecap="round" stroke-linejoin="round">
  <g>
    <path d="M54 38c0-4 3-6 7-6h62c4 0 7 2 7 6 0 6-2 14-6 24-5 13-15 20-27 20s-21-7-26-20c-4-10-7-18-7-24z" fill="#D6E2EC" fill-opacity="0.6"/>
    <path d="M50 44l-18-4" />
    <path d="M32 40c-6-1-12 0-16 3"/>
  </g>
  <g transform="translate(300,0) scale(-1,1)">
    <path d="M54 38c0-4 3-6 7-6h62c4 0 7 2 7 6 0 6-2 14-6 24-5 13-15 20-27 20s-21-7-26-20c-4-10-7-18-7-24z" fill="#D6E2EC" fill-opacity="0.6"/>
    <path d="M50 44l-18-4" />
    <path d="M32 40c-6-1-12 0-16 3"/>
  </g>
  <path d="M130 40c10-6 22-6 32 0"/>
</g>
<g fill="none" stroke="#FFFFFF" stroke-width="3" stroke-linecap="round" opacity="0.65">
  <path d="M78 74l16-22"/>
  <path d="M194 74l16-22"/>
</g>
</svg>
