<svg xmlns="http://www.w3.org/2000/svg" viewBox="0 0 300 124" role="img" aria-label="Montura Lombo, dibujada para el catálogo de la óptica">
<title>Montura Lombo</title>
<g fill="none" stroke="#6B3B2A" stroke-width="6" stroke-linecap="round" stroke-linejoin="round">
  <g>
    <path d="M58 46c0-14 15-22 34-22s34 8 34 22c0 22-15 38-34 38s-34-16-34-38z" fill="#E9E3D8" fill-opacity="0.6"/>
    <path d="M50 44l-18-4" />
    <path d="M32 40c-6-1-12 0-16 3"/>
  </g>
  <g transform="translate(300,0) scale(-1,1)">
    <path d="M58 46c0-14 15-22 34-22s34 8 34 22c0 22-15 38-34 38s-34-16-34-38z" fill="#E9E3D8" fill-opacity="0.6"/>
    <path d="M50 44l-18-4" />
    <path d="M32 40c-6-1-12 0-16 3"/>
  </g>
  <path d="M130 48c10-6 22-6 32 0"/>
</g>
<g fill="none" stroke="#FFFFFF" stroke-width="3" stroke-linecap="round" opacity="0.65">
  <path d="M78 74l16-22"/>
  <path d="M194 74l16-22"/>
</g>
</svg>
